<svg width="182" height="182" viewBox="0 0 182 182" fill="none" xmlns="http://www.w3.org/2000/svg">
<path d="M84.9339 72.8002C84.9339 79.4723 79.4703 84.9341 72.8 84.9341H30.3339C23.6618 84.9341 18.2 79.4723 18.2 72.8002V30.3341C18.2 23.662 23.6618 18.2002 30.3339 18.2002H72.8C79.4703 18.2002 84.9339 23.662 84.9339 30.3341V72.8002Z" fill="#0F2137"/>
<path d="M84.9339 151.666C84.9339 158.338 79.4703 163.8 72.8 163.8H30.3339C23.6618 163.8 18.2 158.338 18.2 151.666V109.2C18.2 102.53 23.6618 97.0679 30.3339 97.0679H72.8C79.4703 97.0679 84.9339 102.53 84.9339 109.2V151.666Z" fill="#0F2137"/>
<path d="M97.066 18.2002H127.4V30.3341H97.066V18.2002Z" fill="#0F2137"/>
<path d="M97.066 66.7339H139.534V78.8678H97.066V66.7339Z" fill="#0F2137"/>
<path d="M97.066 42.4658H163.8V54.5998H97.066V42.4658Z" fill="#0F2137"/>
<path d="M97.066 97.0679H163.8V109.2H97.066V97.0679Z" fill="#0F2137"/>
<path d="M97.066 145.6H139.534V157.734H97.066V145.6Z" fill="#0F2137"/>
<path d="M97.066 121.334H127.4V133.466H97.066V121.334Z" fill="#0F2137"/>
</svg>
