<svg width="156" height="156" viewBox="0 0 156 156" fill="none" xmlns="http://www.w3.org/2000/svg">
<g clip-path="url(#clip0_405_12)">
<path d="M60.0974 100.433L57.7039 114.649C57.3777 116.593 58.1751 118.551 59.7662 119.711C61.3598 120.869 63.4758 121.024 65.2169 120.111L77.9981 113.439L90.7792 120.112C91.5354 120.505 92.3641 120.702 93.184 120.702C94.2576 120.702 95.3288 120.366 96.2324 119.713C97.8247 118.553 98.6247 116.594 98.2959 114.651L95.9049 100.435L106.196 90.3393C107.604 88.9607 108.105 86.9034 107.501 85.0311C106.895 83.1601 105.273 81.7902 103.325 81.5027L89.0644 79.388L82.6413 66.4781C81.7702 64.7157 79.9654 63.5996 77.9968 63.5996C76.032 63.5996 74.2285 64.7157 73.3498 66.4781L66.933 79.388L52.6719 81.5015C50.7209 81.789 49.1061 83.1588 48.4986 85.0299C47.8912 86.9022 48.3911 88.962 49.801 90.3381L60.0974 100.433Z" fill="#0778BE"/>
<path d="M139.289 16.5845H122.96V7.52672C122.96 3.36965 119.59 0 115.432 0H114.238C110.081 0 106.713 3.36965 106.713 7.52672V16.5845H49.0973V7.52672C49.0973 3.36965 45.7277 0 41.5719 0H40.377C36.2199 0 32.8515 3.36965 32.8515 7.52672V16.5845H16.712C8.1716 16.5845 1.22107 23.5325 1.22107 32.0754V140.51C1.22107 149.048 8.1716 156.001 16.712 156.001H139.29C147.83 156.001 154.781 149.049 154.781 140.51V32.0754C154.78 23.5325 147.828 16.5845 139.289 16.5845ZM137.268 138.489H18.733V54.0794H137.268V138.489Z" fill="#0778BE"/>
</g>
<defs>
<clipPath id="clip0_405_12">
<rect width="156" height="156" fill="white"/>
</clipPath>
</defs>
</svg>
