<svg width="180" height="180" viewBox="0 0 180 180" fill="none" xmlns="http://www.w3.org/2000/svg">
<path d="M151.621 141.446C147.996 130.657 133.547 123.903 123.246 119.376C119.21 117.608 108.038 114.61 106.695 109.528C106.214 107.698 106.279 105.971 106.673 104.317C106.052 104.436 105.422 104.506 104.771 104.506H98.0585C92.6999 104.506 88.3457 100.147 88.3457 94.7915C88.3457 89.4401 92.7017 85.0895 98.0585 85.0895H104.771C106.988 85.0895 109.091 85.8401 110.786 87.1793C113.272 86.8481 115.67 86.3171 117.905 85.6205C120.841 79.4699 123.131 72.1151 123.644 65.7845C125.834 38.6981 109.229 22.8509 85.4207 25.5905C68.1101 27.5831 57.7691 40.4909 56.6513 57.1085C55.5209 74.0465 61.8011 86.5565 68.4719 95.7329C71.3933 99.7451 74.4623 102.325 73.9907 107.159C73.4435 112.876 67.3307 114.469 62.9585 116.226C57.7781 118.307 52.1981 121.464 49.5629 122.924C40.4855 127.937 30.5225 133.974 28.2833 142.232C23.3243 160.535 40.0715 166.079 53.8973 168.638C65.7629 170.827 79.1423 171 90.1475 171C110.054 171 145.849 170.203 151.621 155.239C153.263 150.993 152.559 144.227 151.621 141.446Z" fill="#0F2137"/>
<path d="M109.019 92.0574C108.108 90.6696 106.551 89.748 104.774 89.748H98.0622C95.2614 89.748 93.0024 92.0106 93.0024 94.797C93.0024 97.5942 95.2614 99.8604 98.0622 99.8604H104.774C106.735 99.8604 108.398 98.7426 109.237 97.1262C118.595 96.39 126.734 93.5316 132.448 89.3106C133.76 90.1566 135.311 90.6516 136.985 90.6516H137.407C142.072 90.6516 145.845 86.8752 145.845 82.2042V65.3418C145.845 61.983 143.876 59.085 141.035 57.7386C139.797 30.6612 117.382 9 90 9C62.6184 9 40.1994 30.6612 38.9664 57.7386C36.1206 59.0868 34.1532 61.983 34.1532 65.3418V82.2042C34.1532 86.8752 37.9296 90.6516 42.5844 90.6516H43.011C47.6694 90.6516 51.4476 86.8752 51.4476 82.2042V65.3418C51.4476 62.0316 49.5342 59.1768 46.7532 57.7962C47.9574 34.9812 66.8898 16.7958 90 16.7958C113.101 16.7958 132.043 34.9812 133.241 57.7962C130.464 59.1786 128.552 62.0316 128.552 65.3418V82.2042C128.552 83.3238 128.77 84.366 129.154 85.3398C124.236 88.8588 117.077 91.3662 109.019 92.0574Z" fill="#0F2137"/>
</svg>
